<svg xmlns="http://www.w3.org/2000/svg" xmlns:xlink="http://www.w3.org/1999/xlink" width="100" zoomAndPan="magnify" viewBox="0 0 75 74.999997" height="100" preserveAspectRatio="xMidYMid meet" version="1.0"><defs><clipPath id="9fa911d176"><path d="M 0 0 L 74.667969 0 L 74.667969 74.667969 L 0 74.667969 Z M 0 0 " clip-rule="nonzero"/></clipPath><clipPath id="dff26f1a03"><path d="M 0 0 L 74.667969 0 L 74.667969 74.667969 L 0 74.667969 Z M 0 0 " clip-rule="nonzero"/></clipPath><clipPath id="595aec61d3"><rect x="0" width="75" y="0" height="75"/></clipPath><clipPath id="67b7184168"><path d="M 22.554688 51.113281 L 34 51.113281 L 34 70.640625 L 22.554688 70.640625 Z M 22.554688 51.113281 " clip-rule="nonzero"/></clipPath><clipPath id="0ca1479f1b"><path d="M 40.152344 51.113281 L 52 51.113281 L 52 70.640625 L 40.152344 70.640625 Z M 40.152344 51.113281 " clip-rule="nonzero"/></clipPath><clipPath id="116af88618"><path d="M 49.410156 28 L 57.402344 28 L 57.402344 43.707031 L 49.410156 43.707031 Z M 49.410156 28 " clip-rule="nonzero"/></clipPath><clipPath id="5905525651"><path d="M 31 3.898438 L 43 3.898438 L 43 17 L 31 17 Z M 31 3.898438 " clip-rule="nonzero"/></clipPath></defs><rect x="-7.5" width="90" fill="#ffffff" y="-7.5" height="89.999996" fill-opacity="1"/><g clip-path="url(#9fa911d176)"><g transform="matrix(1, 0, 0, 1, 0, -0.000000000000001893)"><g clip-path="url(#595aec61d3)"><g clip-path="url(#dff26f1a03)"><path fill="#ffffff" d="M 0 0 L 74.667969 0 L 74.667969 74.667969 L 0 74.667969 Z M 0 0 " fill-opacity="1" fill-rule="nonzero"/></g></g></g></g><path fill="#f14174" d="M 54.773438 58.128906 C 43.089844 64.203125 31.421875 64.214844 19.761719 58.128906 L 25.070312 17.457031 L 49.46875 17.457031 L 54.773438 58.128906 " fill-opacity="1" fill-rule="nonzero"/><path fill="#100f0d" d="M 20.894531 57.53125 C 31.738281 62.980469 42.75 62.976562 53.644531 57.53125 L 48.554688 18.5 L 25.984375 18.5 Z M 37.25 63.71875 C 31.242188 63.71875 25.234375 62.164062 19.28125 59.050781 L 18.632812 58.714844 L 24.152344 16.414062 L 50.382812 16.414062 L 55.898438 58.714844 L 55.253906 59.050781 C 49.273438 62.160156 43.257812 63.71875 37.25 63.71875 " fill-opacity="1" fill-rule="nonzero"/><path fill="#f2d234" d="M 30.179688 32.15625 C 30.121094 33.125 29.613281 35.886719 29.613281 35.886719 L 36.207031 41.441406 L 38.328125 41.441406 L 44.867188 35.933594 C 44.867188 35.933594 44.359375 33.148438 44.300781 32.175781 C 40.171875 33.546875 34.289062 33.542969 30.179688 32.15625 " fill-opacity="1" fill-rule="nonzero"/><path fill="#100f0d" d="M 36.585938 40.398438 L 37.949219 40.398438 L 43.734375 35.519531 C 43.644531 34.996094 43.515625 34.222656 43.410156 33.519531 C 39.605469 34.496094 34.859375 34.492188 31.066406 33.507812 C 30.964844 34.199219 30.835938 34.957031 30.746094 35.476562 Z M 38.710938 42.484375 L 35.828125 42.484375 L 28.476562 36.292969 L 28.585938 35.699219 C 28.722656 34.945312 29.09375 32.832031 29.140625 32.089844 L 29.226562 30.738281 L 30.515625 31.171875 C 34.398438 32.476562 40.058594 32.488281 43.96875 31.183594 L 45.257812 30.757812 L 45.339844 32.109375 C 45.382812 32.859375 45.757812 34.984375 45.894531 35.746094 L 46.003906 36.339844 L 38.710938 42.484375 " fill-opacity="1" fill-rule="nonzero"/><path fill="#297473" d="M 49.566406 16.816406 L 37.265625 13.285156 L 24.96875 16.816406 C 24.316406 19.332031 24.875 21.636719 27.277344 24.4375 L 29.332031 25.023438 C 30.050781 27.335938 30.328125 29.757812 30.179688 32.15625 C 34.289062 33.542969 40.171875 33.546875 44.300781 32.175781 C 44.152344 29.753906 44.441406 27.316406 45.175781 24.980469 L 47.261719 24.4375 C 49.664062 21.636719 50.21875 19.332031 49.566406 16.816406 " fill-opacity="1" fill-rule="nonzero"/><path fill="#100f0d" d="M 31.253906 31.398438 C 34.84375 32.402344 39.617188 32.40625 43.226562 31.414062 C 43.175781 29.113281 43.492188 26.847656 44.179688 24.667969 L 44.355469 24.117188 L 46.675781 23.511719 C 48.402344 21.421875 49.019531 19.625 48.679688 17.648438 L 37.265625 14.367188 L 25.855469 17.648438 C 25.515625 19.628906 26.136719 21.429688 27.867188 23.523438 L 30.160156 24.171875 L 30.328125 24.710938 C 31 26.875 31.308594 29.121094 31.253906 31.398438 Z M 37.265625 34.25 C 34.644531 34.25 32.027344 33.878906 29.847656 33.144531 L 29.089844 32.890625 L 29.140625 32.09375 C 29.273438 29.972656 29.050781 27.882812 28.492188 25.867188 L 26.6875 25.351562 L 26.484375 25.117188 C 23.964844 22.179688 23.183594 19.539062 23.960938 16.558594 L 24.109375 15.980469 L 37.265625 12.203125 L 50.425781 15.980469 L 50.574219 16.558594 C 51.351562 19.539062 50.570312 22.179688 48.054688 25.117188 L 47.839844 25.363281 L 46.007812 25.839844 C 45.433594 27.871094 45.210938 29.976562 45.339844 32.109375 L 45.386719 32.910156 L 44.628906 33.164062 C 42.457031 33.886719 39.859375 34.25 37.265625 34.25 " fill-opacity="1" fill-rule="nonzero"/><path fill="#100f0d" d="M 17.375 40.644531 L 14.671875 34.664062 L 16.574219 33.804688 L 19.277344 39.789062 L 17.375 40.644531 " fill-opacity="1" fill-rule="nonzero"/><path fill="#297473" d="M 25.902344 53.183594 C 28.167969 55.089844 30.433594 55.589844 32.699219 54.679688 L 32.71875 54.351562 L 36.207031 41.441406 L 29.613281 35.886719 L 25.902344 53.183594 " fill-opacity="1" fill-rule="nonzero"/><path fill="#100f0d" d="M 27.058594 52.769531 C 28.65625 53.960938 30.207031 54.335938 31.757812 53.898438 L 35.027344 41.808594 L 30.269531 37.804688 Z M 30.496094 56.167969 C 28.722656 56.167969 26.960938 55.4375 25.230469 53.980469 L 24.75 53.574219 L 28.953125 33.96875 L 37.386719 41.074219 L 33.742188 54.734375 L 33.703125 55.402344 L 33.089844 55.648438 C 32.226562 55.996094 31.355469 56.167969 30.496094 56.167969 " fill-opacity="1" fill-rule="nonzero"/><path fill="#f2d234" d="M 25.902344 53.183594 L 25.867188 53.355469 L 26.625 65.425781 L 24.078125 67.050781 C 23.0625 67.453125 23.984375 69.464844 25.070312 69.597656 L 31.929688 69.597656 L 32.699219 54.679688 C 30.433594 55.589844 28.167969 55.089844 25.902344 53.183594 " fill-opacity="1" fill-rule="nonzero"/><g clip-path="url(#67b7184168)"><path fill="#100f0d" d="M 25.179688 68.554688 L 30.9375 68.554688 L 31.582031 56.078125 C 30.050781 56.332031 28.53125 56.046875 27.027344 55.226562 L 27.703125 65.976562 L 24.695312 67.894531 C 24.761719 68.136719 25.003906 68.484375 25.179688 68.554688 Z M 32.917969 70.640625 L 24.941406 70.632812 C 23.683594 70.476562 22.753906 69.179688 22.613281 68.070312 C 22.503906 67.199219 22.875 66.464844 23.585938 66.128906 L 25.542969 64.878906 L 24.816406 53.28125 L 25.242188 51.261719 L 26.574219 52.382812 C 28.539062 54.039062 30.417969 54.476562 32.3125 53.710938 L 33.824219 53.105469 L 32.917969 70.640625 " fill-opacity="1" fill-rule="nonzero"/></g><path fill="#f2d234" d="M 41.800781 54.667969 L 42.542969 69.597656 L 49.058594 69.597656 C 50.148438 69.464844 51.40625 67.453125 50.390625 67.050781 L 47.84375 65.425781 L 48.621094 53.414062 L 48.582031 53.226562 C 46.320312 55.109375 44.0625 55.589844 41.800781 54.667969 " fill-opacity="1" fill-rule="nonzero"/><g clip-path="url(#0ca1479f1b)"><path fill="#100f0d" d="M 43.53125 68.554688 L 48.964844 68.554688 C 49.175781 68.488281 49.519531 68.113281 49.660156 67.824219 L 46.761719 65.972656 L 47.457031 55.257812 C 45.953125 56.0625 44.433594 56.335938 42.917969 56.070312 Z M 49.125 70.640625 L 41.546875 70.640625 L 40.679688 53.082031 L 42.195312 53.699219 C 44.085938 54.476562 45.957031 54.054688 47.914062 52.425781 L 49.238281 51.320312 L 49.671875 53.339844 L 48.925781 64.878906 L 50.886719 66.128906 C 51.546875 66.441406 51.890625 67.105469 51.792969 67.886719 C 51.648438 69.027344 50.476562 70.472656 49.191406 70.632812 L 49.125 70.640625 " fill-opacity="1" fill-rule="nonzero"/></g><path fill="#297473" d="M 41.789062 54.386719 L 41.800781 54.667969 C 44.0625 55.589844 46.320312 55.109375 48.582031 53.226562 L 44.867188 35.933594 L 38.328125 41.441406 L 41.789062 54.386719 " fill-opacity="1" fill-rule="nonzero"/><path fill="#100f0d" d="M 42.734375 53.890625 C 44.28125 54.335938 45.824219 53.980469 47.425781 52.808594 L 44.210938 37.847656 L 39.507812 41.8125 Z M 44.039062 56.171875 C 43.164062 56.171875 42.285156 55.988281 41.40625 55.632812 L 40.792969 55.382812 L 40.75 54.554688 L 37.152344 41.074219 L 45.527344 34.011719 L 49.734375 53.621094 L 49.246094 54.027344 C 47.535156 55.453125 45.789062 56.171875 44.039062 56.171875 " fill-opacity="1" fill-rule="nonzero"/><path fill="#ffffff" d="M 55.527344 30.390625 L 49.566406 16.816406 C 50.21875 19.332031 49.664062 21.636719 47.261719 24.4375 L 50.75 32.167969 C 54.238281 33.097656 55.304688 32.058594 55.527344 30.390625 " fill-opacity="1" fill-rule="nonzero"/><path fill="#100f0d" d="M 51.496094 31.28125 C 53.097656 31.640625 53.761719 31.425781 54.019531 31.25 C 54.15625 31.160156 54.335938 30.988281 54.445312 30.519531 L 50.398438 21.308594 C 50.011719 22.394531 49.375 23.476562 48.480469 24.601562 Z M 52.996094 33.558594 C 52.273438 33.558594 51.4375 33.429688 50.480469 33.179688 L 50.003906 33.046875 L 46.039062 24.261719 L 46.46875 23.757812 C 48.523438 21.363281 49.148438 19.363281 48.558594 17.082031 L 50.519531 16.398438 L 56.597656 30.238281 L 56.558594 30.527344 C 56.410156 31.648438 55.945312 32.476562 55.179688 32.984375 C 54.605469 33.367188 53.882812 33.558594 52.996094 33.558594 " fill-opacity="1" fill-rule="nonzero"/><path fill="#f2d234" d="M 55.527344 30.390625 C 54.382812 29.707031 52.292969 29.082031 50.75 32.167969 L 51.945312 40.710938 C 52.203125 42.226562 54.039062 42.992188 55.402344 42.109375 C 56.039062 41.703125 56.371094 40.984375 56.363281 40.253906 C 56.332031 37.082031 56.191406 32.234375 55.566406 30.472656 L 55.527344 30.390625 " fill-opacity="1" fill-rule="nonzero"/><g clip-path="url(#116af88618)"><path fill="#100f0d" d="M 51.832031 32.355469 L 52.976562 40.566406 C 53.03125 40.886719 53.269531 41.175781 53.621094 41.332031 C 54.019531 41.507812 54.472656 41.46875 54.835938 41.234375 C 55.144531 41.035156 55.324219 40.675781 55.316406 40.265625 C 55.261719 34.402344 54.921875 32.054688 54.675781 31.113281 C 54.269531 30.925781 53.777344 30.792969 53.296875 30.933594 C 52.765625 31.085938 52.273438 31.566406 51.832031 32.355469 Z M 54.140625 43.527344 C 53.679688 43.527344 53.21875 43.433594 52.78125 43.238281 C 51.789062 42.804688 51.09375 41.921875 50.914062 40.886719 L 49.675781 31.992188 L 49.820312 31.703125 C 50.566406 30.207031 51.542969 29.273438 52.714844 28.929688 C 53.765625 28.621094 54.921875 28.816406 56.058594 29.492188 L 56.328125 29.652344 L 56.550781 30.125 C 57.074219 31.589844 57.351562 34.902344 57.40625 40.246094 C 57.414062 41.371094 56.878906 42.398438 55.96875 42.988281 C 55.414062 43.347656 54.777344 43.527344 54.140625 43.527344 " fill-opacity="1" fill-rule="nonzero"/></g><path fill="#ffffff" d="M 24.96875 16.816406 L 19.011719 30.390625 C 18.175781 32.058594 19.234375 32.058594 23.476562 32.058594 L 27.277344 24.4375 C 24.875 21.636719 24.316406 19.332031 24.96875 16.816406 " fill-opacity="1" fill-rule="nonzero"/><path fill="#100f0d" d="M 19.914062 30.914062 C 20.492188 30.996094 21.601562 31.011719 22.832031 31.015625 L 26.039062 24.578125 C 25.152344 23.460938 24.523438 22.386719 24.136719 21.308594 L 19.964844 30.808594 C 19.945312 30.84375 19.929688 30.882812 19.914062 30.914062 Z M 24.121094 33.097656 L 23.476562 33.097656 C 19.90625 33.097656 18.574219 33.097656 17.9375 32.066406 C 17.417969 31.230469 17.898438 30.28125 18.078125 29.921875 L 24.011719 16.398438 L 25.976562 17.082031 C 25.386719 19.363281 26.011719 21.363281 28.066406 23.757812 L 28.515625 24.28125 L 24.121094 33.097656 " fill-opacity="1" fill-rule="nonzero"/><path fill="#f2d234" d="M 22.050781 28.980469 L 21.953125 28.980469 C 20.066406 29.1875 15.558594 31.164062 12.636719 32.503906 C 11.964844 32.8125 11.449219 33.417969 11.347656 34.15625 C 11.132812 35.75 12.628906 37.042969 14.128906 36.617188 L 22.480469 33.980469 C 24.648438 31.28125 23.171875 29.699219 22.050781 28.980469 " fill-opacity="1" fill-rule="nonzero"/><path fill="#100f0d" d="M 21.761719 30.054688 C 20.921875 30.207031 18.640625 30.894531 13.070312 33.453125 C 12.6875 33.625 12.429688 33.945312 12.382812 34.300781 C 12.324219 34.707031 12.472656 35.09375 12.789062 35.367188 C 13.09375 35.625 13.476562 35.71875 13.839844 35.617188 L 21.855469 33.085938 C 22.253906 32.535156 22.636719 31.816406 22.53125 31.179688 C 22.449219 30.703125 22.109375 30.324219 21.761719 30.054688 Z M 13.542969 37.738281 C 12.769531 37.738281 12.023438 37.460938 11.421875 36.941406 C 10.578125 36.210938 10.164062 35.117188 10.316406 34.015625 C 10.464844 32.949219 11.167969 32.03125 12.199219 31.558594 C 17.117188 29.296875 20.273438 28.113281 21.839844 27.945312 L 22.347656 27.933594 L 22.609375 28.101562 C 23.726562 28.816406 24.410156 29.765625 24.589844 30.839844 C 24.785156 32.039062 24.351562 33.316406 23.296875 34.636719 L 23.097656 34.882812 L 14.441406 37.613281 C 14.140625 37.695312 13.839844 37.738281 13.542969 37.738281 " fill-opacity="1" fill-rule="nonzero"/><path fill="#ffffff" d="M 41.425781 9.113281 C 41.03125 6.734375 39.320312 4.945312 37.265625 4.945312 C 35.214844 4.945312 33.503906 6.734375 33.109375 9.113281 C 33.058594 9.449219 33.023438 9.800781 33.023438 10.15625 C 33.023438 13.039062 34.921875 15.371094 37.265625 15.371094 C 39.613281 15.371094 41.511719 13.039062 41.511719 10.15625 C 41.511719 9.800781 41.480469 9.449219 41.425781 9.113281 " fill-opacity="1" fill-rule="nonzero"/><g clip-path="url(#5905525651)"><path fill="#100f0d" d="M 37.265625 5.984375 C 35.769531 5.984375 34.457031 7.375 34.136719 9.285156 C 34.089844 9.570312 34.070312 9.863281 34.070312 10.15625 C 34.070312 12.460938 35.503906 14.328125 37.265625 14.328125 C 39.03125 14.328125 40.46875 12.460938 40.46875 10.15625 C 40.46875 9.863281 40.445312 9.570312 40.394531 9.285156 C 40.082031 7.375 38.765625 5.984375 37.265625 5.984375 Z M 37.265625 16.414062 C 34.351562 16.414062 31.984375 13.605469 31.984375 10.15625 C 31.984375 9.75 32.015625 9.34375 32.082031 8.945312 C 32.566406 6.023438 34.746094 3.898438 37.265625 3.898438 C 39.792969 3.898438 41.96875 6.023438 42.453125 8.945312 C 42.519531 9.34375 42.554688 9.75 42.554688 10.15625 C 42.554688 13.605469 40.183594 16.414062 37.265625 16.414062 " fill-opacity="1" fill-rule="nonzero"/></g><path fill="#a7e2ed" d="M 12.507812 32.566406 L 4.207031 17.972656 L 5.242188 12.859375 L 9.949219 15.265625 L 16.332031 30.761719 L 12.507812 32.566406 " fill-opacity="1" fill-rule="nonzero"/><path fill="#100f0d" d="M 5.308594 17.796875 L 12.933594 31.210938 L 14.988281 30.242188 L 9.132812 16.023438 L 5.992188 14.414062 Z M 12.078125 33.921875 L 3.109375 18.148438 L 4.496094 11.304688 L 10.765625 14.515625 L 17.671875 31.28125 L 12.078125 33.921875 " fill-opacity="1" fill-rule="nonzero"/><path fill="#a7e2ed" d="M 35.148438 21.628906 C 35.148438 20.476562 36.09375 19.542969 37.265625 19.542969 C 38.4375 19.542969 39.390625 20.476562 39.390625 21.628906 C 39.390625 22.78125 38.4375 23.714844 37.265625 23.714844 C 36.09375 23.714844 35.148438 22.78125 35.148438 21.628906 " fill-opacity="1" fill-rule="nonzero"/><path fill="#100f0d" d="M 37.265625 20.585938 C 36.675781 20.585938 36.191406 21.050781 36.191406 21.628906 C 36.191406 22.203125 36.675781 22.671875 37.265625 22.671875 C 37.863281 22.671875 38.34375 22.203125 38.34375 21.628906 C 38.34375 21.050781 37.863281 20.585938 37.265625 20.585938 Z M 37.265625 24.753906 C 35.523438 24.753906 34.101562 23.351562 34.101562 21.628906 C 34.101562 19.902344 35.523438 18.5 37.265625 18.5 C 39.015625 18.5 40.433594 19.902344 40.433594 21.628906 C 40.433594 23.351562 39.015625 24.753906 37.265625 24.753906 " fill-opacity="1" fill-rule="nonzero"/></svg>